<svg width="304" height="72" viewBox="0 0 304 72" fill="none" xmlns="http://www.w3.org/2000/svg">
<rect x="16" y="8" width="288" height="56" rx="8" fill="#1856C7"/>
<path d="M73.1477 41V29.3636H77.5114C78.4053 29.3636 79.1553 29.5303 79.7614 29.8636C80.3712 30.197 80.8314 30.6553 81.142 31.2386C81.4564 31.8182 81.6136 32.4773 81.6136 33.2159C81.6136 33.9621 81.4564 34.625 81.142 35.2045C80.8277 35.7841 80.3636 36.2405 79.75 36.5739C79.1364 36.9034 78.3807 37.0682 77.483 37.0682H74.5909V35.3352H77.1989C77.7216 35.3352 78.1496 35.2443 78.483 35.0625C78.8163 34.8807 79.0625 34.6307 79.2216 34.3125C79.3845 33.9943 79.4659 33.6288 79.4659 33.2159C79.4659 32.803 79.3845 32.4394 79.2216 32.125C79.0625 31.8106 78.8144 31.5663 78.4773 31.392C78.1439 31.214 77.714 31.125 77.1875 31.125H75.2557V41H73.1477ZM85.7888 41.1761C85.2358 41.1761 84.7377 41.0777 84.2945 40.8807C83.8551 40.6799 83.5066 40.3845 83.249 39.9943C82.9952 39.6042 82.8684 39.1231 82.8684 38.5511C82.8684 38.0587 82.9593 37.6515 83.1411 37.3295C83.3229 37.0076 83.571 36.75 83.8854 36.5568C84.1998 36.3636 84.554 36.2178 84.9479 36.1193C85.3456 36.017 85.7566 35.9432 86.1809 35.8977C86.6922 35.8447 87.107 35.7973 87.4252 35.7557C87.7434 35.7102 87.9744 35.642 88.1184 35.5511C88.2661 35.4564 88.3399 35.3106 88.3399 35.1136V35.0795C88.3399 34.6515 88.213 34.3201 87.9593 34.0852C87.7055 33.8504 87.3399 33.733 86.8627 33.733C86.3589 33.733 85.9593 33.8428 85.6638 34.0625C85.3721 34.2822 85.1752 34.5417 85.0729 34.8409L83.1524 34.5682C83.304 34.0379 83.554 33.5947 83.9024 33.2386C84.2509 32.8788 84.6771 32.6098 85.1809 32.4318C85.6846 32.25 86.2415 32.1591 86.8513 32.1591C87.2718 32.1591 87.6903 32.2083 88.107 32.3068C88.5237 32.4053 88.9043 32.5682 89.249 32.7955C89.5937 33.0189 89.8702 33.3239 90.0786 33.7102C90.2907 34.0966 90.3968 34.5795 90.3968 35.1591V41H88.4195V39.8011H88.3513C88.2263 40.0436 88.0502 40.2708 87.8229 40.483C87.5994 40.6913 87.3172 40.8598 86.9763 40.9886C86.6392 41.1136 86.2434 41.1761 85.7888 41.1761ZM86.3229 39.6648C86.7358 39.6648 87.0937 39.5833 87.3968 39.4205C87.6998 39.2538 87.9327 39.0341 88.0956 38.7614C88.2623 38.4886 88.3456 38.1913 88.3456 37.8693V36.8409C88.2812 36.8939 88.1714 36.9432 88.0161 36.9886C87.8646 37.0341 87.6941 37.0739 87.5047 37.108C87.3153 37.142 87.1278 37.1723 86.9422 37.1989C86.7566 37.2254 86.5956 37.2481 86.4593 37.267C86.1524 37.3087 85.8778 37.3769 85.6354 37.4716C85.393 37.5663 85.2017 37.6989 85.0615 37.8693C84.9214 38.036 84.8513 38.2519 84.8513 38.517C84.8513 38.8958 84.9896 39.1818 85.2661 39.375C85.5426 39.5682 85.8949 39.6648 86.3229 39.6648ZM96.9029 32.2727V33.8636H91.8859V32.2727H96.9029ZM93.1245 30.1818H95.1813V38.375C95.1813 38.6515 95.223 38.8636 95.3063 39.0114C95.3934 39.1553 95.5071 39.2538 95.6472 39.3068C95.7874 39.3598 95.9427 39.3864 96.1131 39.3864C96.2419 39.3864 96.3593 39.3769 96.4654 39.358C96.5752 39.339 96.6586 39.322 96.7154 39.3068L97.062 40.9148C96.9521 40.9527 96.7949 40.9943 96.5904 41.0398C96.3896 41.0852 96.1434 41.1117 95.8518 41.1193C95.3366 41.1345 94.8726 41.0568 94.4597 40.8864C94.0468 40.7121 93.7192 40.4432 93.4768 40.0795C93.2381 39.7159 93.1207 39.2614 93.1245 38.7159V30.1818ZM98.7031 41V32.2727H100.76V41H98.7031ZM99.7372 31.0341C99.4114 31.0341 99.1311 30.9261 98.8962 30.7102C98.6614 30.4905 98.544 30.2273 98.544 29.9205C98.544 29.6098 98.6614 29.3466 98.8962 29.1307C99.1311 28.911 99.4114 28.8011 99.7372 28.8011C100.067 28.8011 100.347 28.911 100.578 29.1307C100.813 29.3466 100.93 29.6098 100.93 29.9205C100.93 30.2273 100.813 30.4905 100.578 30.7102C100.347 30.9261 100.067 31.0341 99.7372 31.0341ZM106.819 41.1705C105.944 41.1705 105.188 40.9886 104.552 40.625C103.919 40.2576 103.432 39.7386 103.091 39.0682C102.75 38.3939 102.58 37.6004 102.58 36.6875C102.58 35.7898 102.75 35.0019 103.091 34.3239C103.436 33.642 103.917 33.1117 104.534 32.733C105.152 32.3504 105.877 32.1591 106.711 32.1591C107.249 32.1591 107.756 32.2462 108.233 32.4205C108.714 32.5909 109.139 32.8561 109.506 33.2159C109.877 33.5758 110.169 34.0341 110.381 34.5909C110.593 35.1439 110.699 35.803 110.699 36.5682V37.1989H103.546V35.8125H108.728C108.724 35.4186 108.639 35.0682 108.472 34.7614C108.305 34.4508 108.072 34.2064 107.773 34.0284C107.478 33.8504 107.133 33.7614 106.739 33.7614C106.319 33.7614 105.949 33.8636 105.631 34.0682C105.313 34.2689 105.065 34.5341 104.887 34.8636C104.713 35.1894 104.624 35.5473 104.62 35.9375V37.1477C104.62 37.6553 104.713 38.0909 104.898 38.4545C105.084 38.8144 105.343 39.0909 105.677 39.2841C106.01 39.4735 106.4 39.5682 106.847 39.5682C107.146 39.5682 107.417 39.5265 107.659 39.4432C107.902 39.3561 108.112 39.2292 108.29 39.0625C108.468 38.8958 108.603 38.6894 108.694 38.4432L110.614 38.6591C110.493 39.1667 110.262 39.6098 109.921 39.9886C109.584 40.3636 109.152 40.6553 108.625 40.8636C108.099 41.0682 107.497 41.1705 106.819 41.1705ZM114.576 35.8864V41H112.519V32.2727H114.485V33.7557H114.588C114.788 33.267 115.108 32.8788 115.548 32.5909C115.991 32.303 116.538 32.1591 117.19 32.1591C117.792 32.1591 118.317 32.2879 118.764 32.5455C119.214 32.803 119.563 33.1761 119.809 33.6648C120.059 34.1534 120.182 34.7462 120.178 35.4432V41H118.122V35.7614C118.122 35.178 117.97 34.7216 117.667 34.392C117.368 34.0625 116.953 33.8977 116.423 33.8977C116.063 33.8977 115.743 33.9773 115.463 34.1364C115.186 34.2917 114.968 34.517 114.809 34.8125C114.654 35.108 114.576 35.4659 114.576 35.8864ZM126.707 32.2727V33.8636H121.69V32.2727H126.707ZM122.929 30.1818H124.986V38.375C124.986 38.6515 125.027 38.8636 125.111 39.0114C125.198 39.1553 125.311 39.2538 125.452 39.3068C125.592 39.3598 125.747 39.3864 125.917 39.3864C126.046 39.3864 126.164 39.3769 126.27 39.358C126.38 39.339 126.463 39.322 126.52 39.3068L126.866 40.9148C126.757 40.9527 126.599 40.9943 126.395 41.0398C126.194 41.0852 125.948 41.1117 125.656 41.1193C125.141 41.1345 124.677 41.0568 124.264 40.8864C123.851 40.7121 123.524 40.4432 123.281 40.0795C123.042 39.7159 122.925 39.2614 122.929 38.7159V30.1818ZM135.28 34.5795L133.405 34.7841C133.352 34.5947 133.259 34.4167 133.127 34.25C132.998 34.0833 132.824 33.9489 132.604 33.8466C132.384 33.7443 132.115 33.6932 131.797 33.6932C131.369 33.6932 131.009 33.786 130.718 33.9716C130.43 34.1572 130.288 34.3977 130.292 34.6932C130.288 34.947 130.381 35.1534 130.57 35.3125C130.763 35.4716 131.081 35.6023 131.524 35.7045L133.013 36.0227C133.839 36.2008 134.453 36.483 134.854 36.8693C135.259 37.2557 135.464 37.7614 135.468 38.3864C135.464 38.9356 135.303 39.4205 134.985 39.8409C134.67 40.2576 134.233 40.5833 133.672 40.8182C133.112 41.053 132.468 41.1705 131.74 41.1705C130.672 41.1705 129.812 40.947 129.161 40.5C128.509 40.0492 128.121 39.4223 127.996 38.6193L130.002 38.4261C130.093 38.8201 130.286 39.1174 130.581 39.3182C130.877 39.5189 131.261 39.6193 131.735 39.6193C132.223 39.6193 132.615 39.5189 132.911 39.3182C133.21 39.1174 133.36 38.8693 133.36 38.5739C133.36 38.3239 133.263 38.1174 133.07 37.9545C132.881 37.7917 132.585 37.6667 132.184 37.5795L130.695 37.267C129.858 37.0928 129.239 36.7992 128.837 36.3864C128.435 35.9697 128.237 35.4432 128.24 34.8068C128.237 34.2689 128.382 33.803 128.678 33.4091C128.977 33.0114 129.392 32.7045 129.922 32.4886C130.456 32.2689 131.072 32.1591 131.769 32.1591C132.792 32.1591 133.596 32.3769 134.184 32.8125C134.774 33.2481 135.14 33.8371 135.28 34.5795Z" fill="white"/>
<path d="M53 41H51.781L51 37.877V34C50.998 32.3182 50.3906 30.6932 49.2888 29.4225C48.187 28.1518 46.6646 27.3203 45 27.08V26H43V27.08C41.3354 27.3203 39.813 28.1518 38.7112 29.4225C37.6094 30.6932 37.002 32.3182 37 34V37.877L36.219 41H35V43H40.142C40.3603 43.8576 40.8581 44.618 41.5567 45.1611C42.2554 45.7042 43.1151 45.9991 44 45.9991C44.8849 45.9991 45.7446 45.7042 46.4433 45.1611C47.1419 44.618 47.6397 43.8576 47.858 43H53V41ZM38.97 38.243L39 34C39 32.6739 39.5268 31.4021 40.4645 30.4645C41.4021 29.5268 42.6739 29 44 29C45.3261 29 46.5979 29.5268 47.5355 30.4645C48.4732 31.4021 49 32.6739 49 34V38L49.728 41H38.281L38.97 38.243ZM44 44C43.6505 43.9989 43.3074 43.906 43.0052 43.7305C42.7029 43.555 42.4521 43.303 42.278 43H45.722C45.5479 43.303 45.2971 43.555 44.9948 43.7305C44.6926 43.906 44.3495 43.9989 44 44Z" fill="white"/>
</svg>
