<svg width="288" height="58" viewBox="0 0 288 58" fill="none" xmlns="http://www.w3.org/2000/svg">
<path d="M82.1477 35.9444V24.3081H86.5114C87.4053 24.3081 88.1553 24.4747 88.7614 24.8081C89.3712 25.1414 89.8314 25.5997 90.142 26.1831C90.4564 26.7626 90.6136 27.4217 90.6136 28.1604C90.6136 28.9066 90.4564 29.5694 90.142 30.149C89.8277 30.7285 89.3636 31.185 88.75 31.5183C88.1364 31.8479 87.3807 32.0126 86.483 32.0126H83.5909V30.2797H86.1989C86.7216 30.2797 87.1496 30.1888 87.483 30.0069C87.8163 29.8251 88.0625 29.5751 88.2216 29.2569C88.3845 28.9388 88.4659 28.5732 88.4659 28.1604C88.4659 27.7475 88.3845 27.3838 88.2216 27.0694C88.0625 26.755 87.8144 26.5107 87.4773 26.3365C87.1439 26.1585 86.714 26.0694 86.1875 26.0694H84.2557V35.9444H82.1477ZM92.4337 35.9444V27.2172H94.428V28.6717H94.5189C94.678 28.1679 94.9507 27.7797 95.3371 27.5069C95.7273 27.2304 96.1723 27.0922 96.6723 27.0922C96.786 27.0922 96.9129 27.0979 97.053 27.1092C97.197 27.1168 97.3163 27.13 97.411 27.149V29.041C97.3238 29.0107 97.1856 28.9842 96.9962 28.9615C96.8106 28.935 96.6307 28.9217 96.4564 28.9217C96.0814 28.9217 95.7443 29.0032 95.4451 29.166C95.1496 29.3251 94.9166 29.5467 94.7462 29.8308C94.5757 30.1149 94.4905 30.4425 94.4905 30.8138V35.9444H92.4337ZM102.305 36.1149C101.453 36.1149 100.714 35.9274 100.089 35.5524C99.464 35.1774 98.9791 34.6528 98.6344 33.9785C98.2935 33.3043 98.1231 32.5164 98.1231 31.6149C98.1231 30.7134 98.2935 29.9236 98.6344 29.2456C98.9791 28.5675 99.464 28.041 100.089 27.666C100.714 27.291 101.453 27.1035 102.305 27.1035C103.157 27.1035 103.896 27.291 104.521 27.666C105.146 28.041 105.629 28.5675 105.97 29.2456C106.314 29.9236 106.487 30.7134 106.487 31.6149C106.487 32.5164 106.314 33.3043 105.97 33.9785C105.629 34.6528 105.146 35.1774 104.521 35.5524C103.896 35.9274 103.157 36.1149 102.305 36.1149ZM102.316 34.4672C102.778 34.4672 103.165 34.3403 103.475 34.0865C103.786 33.8289 104.017 33.4842 104.169 33.0524C104.324 32.6206 104.401 32.1395 104.401 31.6092C104.401 31.0751 104.324 30.5922 104.169 30.1604C104.017 29.7247 103.786 29.3782 103.475 29.1206C103.165 28.863 102.778 28.7342 102.316 28.7342C101.843 28.7342 101.449 28.863 101.134 29.1206C100.824 29.3782 100.591 29.7247 100.436 30.1604C100.284 30.5922 100.208 31.0751 100.208 31.6092C100.208 32.1395 100.284 32.6206 100.436 33.0524C100.591 33.4842 100.824 33.8289 101.134 34.0865C101.449 34.3403 101.843 34.4672 102.316 34.4672ZM112.733 27.2172V28.8081H107.574V27.2172H112.733ZM108.864 35.9444V26.3933C108.864 25.8062 108.985 25.3175 109.227 24.9274C109.473 24.5372 109.803 24.2456 110.216 24.0524C110.629 23.8592 111.087 23.7626 111.591 23.7626C111.947 23.7626 112.263 23.791 112.54 23.8479C112.816 23.9047 113.021 23.9558 113.153 24.0013L112.744 25.5922C112.657 25.5657 112.547 25.5391 112.415 25.5126C112.282 25.4823 112.134 25.4672 111.972 25.4672C111.589 25.4672 111.318 25.56 111.159 25.7456C111.004 25.9274 110.926 26.1888 110.926 26.5297V35.9444H108.864ZM114.424 35.9444V27.2172H116.481V35.9444H114.424ZM115.458 25.9785C115.132 25.9785 114.852 25.8706 114.617 25.6547C114.382 25.435 114.265 25.1717 114.265 24.8649C114.265 24.5543 114.382 24.291 114.617 24.0751C114.852 23.8554 115.132 23.7456 115.458 23.7456C115.787 23.7456 116.068 23.8554 116.299 24.0751C116.534 24.291 116.651 24.5543 116.651 24.8649C116.651 25.1717 116.534 25.435 116.299 25.6547C116.068 25.8706 115.787 25.9785 115.458 25.9785ZM120.732 24.3081V35.9444H118.676V24.3081H120.732ZM126.791 36.1149C125.916 36.1149 125.16 35.9331 124.524 35.5694C123.891 35.202 123.405 34.6831 123.064 34.0126C122.723 33.3384 122.552 32.5448 122.552 31.6319C122.552 30.7342 122.723 29.9463 123.064 29.2683C123.409 28.5865 123.89 28.0562 124.507 27.6774C125.124 27.2948 125.85 27.1035 126.683 27.1035C127.221 27.1035 127.729 27.1907 128.206 27.3649C128.687 27.5354 129.111 27.8005 129.479 28.1604C129.85 28.5202 130.141 28.9785 130.354 29.5354C130.566 30.0884 130.672 30.7475 130.672 31.5126V32.1433H123.518V30.7569H128.7C128.696 30.363 128.611 30.0126 128.444 29.7058C128.278 29.3952 128.045 29.1509 127.746 28.9729C127.45 28.7948 127.105 28.7058 126.712 28.7058C126.291 28.7058 125.922 28.8081 125.604 29.0126C125.285 29.2134 125.037 29.4785 124.859 29.8081C124.685 30.1338 124.596 30.4918 124.592 30.8819V32.0922C124.592 32.5997 124.685 33.0354 124.871 33.399C125.056 33.7588 125.316 34.0354 125.649 34.2285C125.982 34.4179 126.373 34.5126 126.819 34.5126C127.119 34.5126 127.39 34.471 127.632 34.3876C127.874 34.3005 128.085 34.1736 128.263 34.0069C128.441 33.8403 128.575 33.6338 128.666 33.3876L130.587 33.6035C130.465 34.1111 130.234 34.5543 129.893 34.9331C129.556 35.3081 129.124 35.5997 128.598 35.8081C128.071 36.0126 127.469 36.1149 126.791 36.1149Z" fill="#2E2E2E"/>
<path d="M49.5 29C50.6125 29 51.7001 28.7638 52.6251 28.3212C53.5501 27.8786 54.2711 27.2496 54.6968 26.5136C55.1226 25.7776 55.234 24.9678 55.0169 24.1864C54.7999 23.4051 54.2641 22.6874 53.4775 22.1242C52.6908 21.5609 51.6885 21.1772 50.5974 21.0218C49.5062 20.8664 48.3752 20.9462 47.3474 21.251C46.3196 21.5559 45.4411 22.0721 44.823 22.7345C44.2049 23.3969 43.875 24.1756 43.875 24.9722C43.8768 26.0401 44.47 27.0638 45.5245 27.8189C46.579 28.574 48.0087 28.9987 49.5 29V29ZM49.5 22.5556C50.1675 22.5556 50.82 22.6973 51.375 22.9628C51.9301 23.2284 52.3626 23.6058 52.6181 24.0474C52.8735 24.489 52.9404 24.9749 52.8102 25.4437C52.6799 25.9125 52.3585 26.3431 51.8865 26.6811C51.4145 27.019 50.8131 27.2492 50.1584 27.3425C49.5037 27.4357 48.8251 27.3878 48.2084 27.2049C47.5917 27.022 47.0646 26.7123 46.6938 26.3149C46.3229 25.9174 46.125 25.4502 46.125 24.9722C46.125 24.3313 46.4806 23.7166 47.1135 23.2634C47.7464 22.8102 48.6049 22.5556 49.5 22.5556V22.5556Z" fill="#808080"/>
<path d="M59.6093 35.3115C59.1194 33.6808 57.8309 32.2294 55.9769 31.2196C54.1229 30.2098 51.8255 29.7083 49.5 29.8056C47.1745 29.7083 44.8772 30.2098 43.0231 31.2196C41.1691 32.2294 39.8807 33.6808 39.3908 35.3115L39.1714 36.25H59.8286L59.6093 35.3115ZM42.0165 34.6389C42.7421 33.4104 44.6625 31.4167 49.5 31.4167C54.2936 31.4167 56.2309 33.4088 56.9711 34.6389H42.0165Z" fill="#808080"/>
</svg>
