<svg width="40" height="40" viewBox="0 0 40 40" fill="none" xmlns="http://www.w3.org/2000/svg">
<path fill-rule="evenodd" clip-rule="evenodd" d="M3.33333 0C2.44928 0 1.60143 0.35119 0.976311 0.976311C0.35119 1.60143 0 2.44928 0 3.33333V36.6667C0 37.5507 0.35119 38.3986 0.976311 39.0237C1.60143 39.6488 2.44928 40 3.33333 40H8.88889V36.6667C8.88889 36.372 9.00595 36.0894 9.21433 35.881C9.4227 35.6726 9.70531 35.5556 10 35.5556H14.4444C14.7391 35.5556 15.0217 35.6726 15.2301 35.881C15.4385 36.0894 15.5556 36.372 15.5556 36.6667V40H23.3333V36.6667C23.3333 36.372 23.4504 36.0894 23.6588 35.881C23.8671 35.6726 24.1498 35.5556 24.4444 35.5556H28.8889C29.1836 35.5556 29.4662 35.6726 29.6746 35.881C29.8829 36.0894 30 36.372 30 36.6667V40H36.6667C37.5507 40 38.3986 39.6488 39.0237 39.0237C39.6488 38.3986 40 37.5507 40 36.6667V3.33333C40 2.44928 39.6488 1.60143 39.0237 0.976311C38.3986 0.35119 37.5507 0 36.6667 0H3.33333ZM31.1 31.8167C31.7078 31.2 32.3222 30.5778 32.8889 29.65C33.0311 29.4167 33.1756 29.1933 33.3156 28.9756C33.8222 28.1922 34.2711 27.4978 34.3533 26.7867C34.46 25.8789 34.5267 20.4344 34.2333 19.61C33.9389 18.7867 32.2444 18.3244 31.6589 20.1689C31.37 21.0789 31.2789 22.2489 31.1967 23.3111C31.1111 24.4 31.0356 25.3756 30.7633 25.8356C30.2267 26.7444 28.4989 29.0056 28.4989 29.0056L29.99 26.1756C29.99 26.1756 30.2167 25.7844 30.0978 25.0411C29.9778 24.2967 29.0789 23.2567 28.6567 24.0833C28.2344 24.9089 27.4956 25.6544 27.4956 25.6544L24.8867 28.7978C24.8867 28.7978 24.0367 29.9 24.0133 30.5044C24.0056 30.7067 23.88 31.1556 23.7356 31.6633C23.5744 32.2367 23.3911 32.8856 23.3333 33.3411V34.4444H29.7478V33.3411C30.1789 32.7489 30.6378 32.2856 31.1 31.8167ZM9.08556 33.3411C8.65333 32.7489 8.19333 32.2856 7.73 31.8167C7.11889 31.2 6.50333 30.5778 5.93444 29.65C5.79222 29.4167 5.64667 29.1933 5.50667 28.9756C4.99889 28.1922 4.54889 27.4978 4.46444 26.7867C4.35778 25.8789 4.69 20.4344 4.98444 19.61C5.28 18.7867 6.98 18.3244 7.56778 20.1689C7.85667 21.0789 7.94889 22.2489 8.03222 23.3111C8.11667 24.4 8.19333 25.3756 8.46556 25.8356C9.00445 26.7444 10.7378 29.0056 10.7378 29.0056L9.24222 26.1756C9.24222 26.1756 9.01444 25.7844 9.13444 25.0411C9.25444 24.2967 10.1567 23.2567 10.58 24.0833C11.0044 24.9089 11.7456 25.6544 11.7456 25.6544L14.3622 28.7978C14.3622 28.7978 15.2156 29.9 15.2389 30.5044C15.2556 30.9344 15.4467 32.4822 15.5556 33.3411V34.4444H9.08556V33.3411ZM15.3122 5.55556C12.2422 5.55556 10 8.87333 10 12.4522C10 20.4411 20 25.5556 20 25.5556C20 25.5556 30 20.1111 30 12.4522C30 8.87445 27.7578 5.55556 24.6878 5.55556C22.5567 5.55556 20.9767 7.04444 20 9.15556C19.0244 7.04444 17.4433 5.55556 15.3122 5.55556Z" fill="#1856C7"/>
</svg>
